<?xml version="1.0" encoding="UTF-8"?>
<svg width="381px" height="54px" viewBox="0 0 381 54" version="1.1" xmlns="http://www.w3.org/2000/svg" xmlns:xlink="http://www.w3.org/1999/xlink">
    <!-- Generator: Sketch 48.1 (47250) - http://www.bohemiancoding.com/sketch -->
    <title>Group 4 Copy</title>
    <desc>Created with Sketch.</desc>
    <defs>
        <path d="M30.7055664,44.730957 L54.5330811,31.1533203 L54.5330811,43.9873047 L41.9101562,50.8808594 L30.7055664,44.730957 Z M56.8567297,28.4708571 L56.5162703,28.1304 L29.2497297,0.822857143 L28.4281081,0 L27.6064865,0.823371429 L0.339945946,28.1309143 L0,28.4708571 L0,28.9532571 L0,44.7192 L0,45.3877714 L0.580783784,45.7236 L14.2140541,53.6065714 L14.7948378,53.9424 L15.3756216,53.6065714 L28.4275946,46.0589143 L41.4800811,53.6065714 L42.0613784,53.9418857 L42.6421622,53.6065714 L56.2749189,45.7236 L56.8562162,45.3877714 L56.8562162,44.7192 L56.8562162,28.9532571 L56.8567297,28.4708571 Z M41.5822703,35.7747429 L41.4816216,35.8323429 L28.4286216,43.3810286 L15.3761351,35.8323429 L15.274973,35.7737143 L28.4291351,22.6008 L41.5822703,35.7747429 Z M44.0137568,34.3697143 L31.9621081,6.83125714 L53.8044054,28.7058857 L44.0137568,34.3697143 Z M25.8930664,44.5893555 L14.7626953,51.1240234 L2.32364865,44.0506286 L2.32364865,31.5078125 L25.8930664,44.5893555 Z M39.936973,30.8355429 L29.2497297,20.1322286 L28.4281081,19.3088571 L27.605973,20.1322286 L16.9182162,30.8355429 L28.4275946,4.53651429 L39.936973,30.8355429 Z M24.8946216,6.83125714 L12.842973,34.3681714 L12.8424595,34.3697143 L3.05078378,28.7074286 L3.05181081,28.7058857 L24.8946216,6.83125714 Z" id="path-1"></path>
    </defs>
    <g id="Page-1" stroke="none" stroke-width="1" fill="none" fill-rule="evenodd">
        <g id="Group-4-Copy">
            <g id="Ellcrys-file-1-rgb.eps">
                <g id="Clipped">
                    <mask id="mask-2" fill="white">
                        <use xlink:href="#path-1"></use>
                    </mask>
                    <use id="SVGID_1_" fill="#000000" xlink:href="#path-1"></use>
                </g>
            </g>
            <path d="M77,14.6627597 L77,15.7948855 L83.7813137,15.7948855 L88.568754,15.7948855 L105.79432,15.7948855 L105.79432,9.66275972 L82,9.66275972 C79.2385763,9.66275972 77,11.901336 77,14.6627597 Z M77,48.3372403 L106.070889,48.3372403 L106.070889,42.204049 L83.7802418,42.204049 L83.7802418,31.8726692 L103.291258,31.8726692 L103.291258,25.7405434 L88.567682,25.7405434 L83.7802418,25.7405434 L82,25.7405434 C79.2385763,25.7405434 77,27.9791197 77,30.7405434 L77,48.3372403 Z M150.554635,46.3372403 L150.554635,42.204049 L130.098137,42.204049 L130.098137,9.66275972 L128.316823,9.66275972 C125.555399,9.66275972 123.316823,11.901336 123.316823,14.6627597 L123.316823,48.3372403 L148.554635,48.3372403 C149.659205,48.3372403 150.554635,47.4418098 150.554635,46.3372403 Z M194.038228,46.3372403 L194.038228,42.204049 L173.58173,42.204049 L173.58173,9.66275972 L171.801488,9.66275972 C169.040064,9.66275972 166.801488,11.901336 166.801488,14.6627597 L166.801488,48.3372403 L192.038228,48.3372403 C193.142798,48.3372403 194.038228,47.4418098 194.038228,46.3372403 Z M235.150291,39.6124697 C234.050967,40.4405541 233.155618,41.037321 232.464243,41.4027704 C230.758731,42.3052744 228.719835,42.7570591 226.348626,42.7570591 C224.495181,42.7570591 222.783237,42.399041 221.207434,41.6798082 C219.631631,40.9616409 218.270223,39.9760256 217.121066,38.7240277 C215.97298,37.4720298 215.083241,36.0079915 214.453992,34.3319126 C213.822599,32.6568993 213.50851,30.8604156 213.50851,28.945658 C213.50851,27.0298348 213.822599,25.2429409 214.453992,23.584976 C215.083241,21.9280767 215.97298,20.4842834 217.121066,19.249334 C218.269151,18.0143847 219.631631,17.0404901 221.207434,16.3212573 C222.783237,15.60309 224.495181,15.2429409 226.348626,15.2429409 C228.572974,15.2429409 230.555056,15.6851359 232.295943,16.5695258 C232.943029,16.8970572 233.741253,17.4020222 234.690615,18.0844209 L234.690617,18.084418 C236.178085,19.1536056 238.234678,18.9163213 239.439585,17.5364944 L239.439585,17.5364944 C240.626471,16.1773038 240.486791,14.1133004 239.127601,12.9264137 C239.06258,12.8696359 238.995335,12.8154571 238.926024,12.764005 C238.843633,12.7028292 238.76469,12.6454645 238.689202,12.591902 C237.65153,11.8545551 236.521669,11.2184337 235.298545,10.6846031 C234.075422,10.1507725 232.732237,9.7362813 231.268991,9.44219499 C229.804674,9.14704315 228.183847,9 226.404369,9 C223.440358,9 220.735765,9.52424081 218.29059,10.5748535 C215.845415,11.6254662 213.732553,13.0618007 211.954146,14.8838572 C210.174668,16.7080448 208.795036,18.8348428 207.813107,21.2642515 C206.831178,23.6957912 206.340213,26.2935535 206.340213,29.0554076 C206.340213,31.8545551 206.840826,34.469366 207.839906,36.9009057 C208.842203,39.3313799 210.220763,41.4400639 211.980946,43.2269579 C213.740057,45.0138519 215.825048,46.4214172 218.234848,47.4539158 C220.642503,48.485349 223.274202,49 226.126727,49 C227.942653,49 229.600998,48.8444326 231.102835,48.5311668 C232.602528,48.2168354 233.983232,47.7575919 235.242803,47.1502397 C236.504517,46.5428876 237.67833,45.8236548 238.772816,44.9946723 C239.000117,44.8222254 239.258601,44.6110512 239.548269,44.3611496 L239.548285,44.3611686 C240.812971,43.2700997 240.953715,41.3603832 239.862646,40.0956974 C239.816205,40.0418664 239.767881,39.9896898 239.717762,39.9392648 L239.717762,39.9392648 C238.490666,38.7046606 236.540651,38.5651342 235.15028,39.6124548 Z M280.670958,33.6957912 C282.042014,33.3281833 283.293009,32.8028769 284.422871,32.1220032 C285.553804,31.4389984 286.527158,30.6110815 287.341859,29.6350559 C288.15656,28.6590304 288.795457,27.5348961 289.259622,26.2637187 C289.723787,24.9946723 289.95319,23.548748 289.95319,21.9280767 C289.95319,20.0495471 289.620877,18.34683 288.953037,16.8167288 C288.286269,15.2876931 287.331139,13.9994672 286.090864,12.9499201 C284.848445,11.8993074 283.328384,11.0895045 281.532826,10.5183804 C279.735124,9.94725626 277.725171,9.66275972 275.501895,9.66275972 L263.158412,9.66275972 C260.396988,9.66275972 258.158412,11.901336 258.158412,14.6627597 L258.158412,15.7948855 L264.939726,15.7948855 L268.838499,15.7948855 L274.916597,15.7948855 C277.483977,15.7948855 279.475706,16.3383058 280.883209,17.4347363 C282.301432,18.521577 283.004648,20.1401172 283.004648,22.2871604 C283.004648,24.2850293 282.282137,25.8790623 280.827467,27.0586042 C279.383516,28.2456047 277.429306,28.8348428 274.974483,28.8348428 L268.838499,28.8348428 L264.939726,28.8348428 L263.158412,28.8348428 C260.396988,28.8348428 258.158412,31.0734191 258.158412,33.8348428 L258.158412,48.3383058 L264.939726,48.3383058 L264.939726,34.8582845 L273.528389,34.8582845 L281.620023,46.2361013 C282.557978,47.5549796 284.07628,48.3383058 285.694674,48.3383058 L291.176313,48.3383058 L280.670958,33.6957912 Z M331.991761,9.66275972 L320.984721,26.7879595 L310.091312,9.66275972 L310.091312,9.66275972 C307.694714,9.66275972 305.751889,11.6055856 305.751889,14.0021828 C305.751889,14.8517278 306.001255,15.6825871 306.469065,16.3917277 L317.483651,33.088439 L317.483651,48.3372403 L324.375378,48.3372403 L324.375378,32.9211508 L335.491778,16.1904402 C336.776126,14.2574341 336.250286,11.6492526 334.31728,10.3649039 C333.628136,9.90701567 332.819154,9.66275972 331.991761,9.66275972 Z M360.356219,16.485349 C361.468929,15.582845 363.023292,15.1310602 365.02467,15.1310602 C366.803076,15.1310602 368.564331,15.4720298 370.30629,16.151838 C372.04825,16.8348428 373.808433,17.8204582 375.586839,19.1086841 L376.120104,18.3617535 C377.724656,16.1143445 377.203518,12.9917131 374.956109,11.387161 C374.73507,11.2293485 374.501539,11.0898081 374.257836,10.969925 C373.73489,10.7126762 373.260638,10.5067538 372.835079,10.3521577 C370.55606,9.52424081 367.98868,9.1097496 365.136155,9.1097496 C363.209816,9.1097496 361.431409,9.37613213 359.809511,9.90889718 C358.179037,10.4437933 356.789758,11.2088439 355.632025,12.2029835 C354.474292,13.1992541 353.566329,14.3851891 352.898489,15.7661161 C352.241368,17.1481087 351.906912,18.6856686 351.906912,20.3798615 C351.906912,22.1848695 352.194201,23.7139052 352.769852,24.965903 C353.343358,26.2189664 354.185931,27.2866276 355.279345,28.1710176 C356.373831,29.0554076 357.73524,29.7916889 359.346418,30.3819925 C360.968316,30.9712307 362.811041,31.5050613 364.897105,31.9824188 C366.711958,32.4246137 368.184852,32.8476292 369.325433,33.2535962 C370.455295,33.6584976 371.345034,34.0911028 372.002155,34.5524774 C372.649628,35.0138519 373.095569,35.5189132 373.335692,36.0708578 C373.576886,36.6238679 373.698019,37.249334 373.698019,37.9504529 C373.698019,39.460309 373.077346,40.6579648 371.835999,41.5412893 C370.59358,42.4256793 368.917011,42.8668087 366.80522,42.8668087 C364.360045,42.8668087 362.174288,42.435269 360.245805,41.5679275 C358.319466,40.7027171 356.411351,39.4592435 354.521459,37.8407032 L353.988423,38.470646 C352.204688,40.5786666 352.467573,43.7335579 354.575594,45.5172928 C354.793645,45.7018003 355.027106,45.8672834 355.273415,46.0119261 C356.321141,46.6271945 357.23787,47.0797988 358.023601,47.3697389 C360.766785,48.3830581 363.637534,48.8891849 366.639064,48.8891849 C368.676888,48.8891849 370.548557,48.6323921 372.252997,48.1145445 C373.948861,47.5998934 375.412107,46.8454981 376.617007,45.8492275 C377.829411,44.8550879 378.774893,43.6403836 379.460957,42.2029835 C380.136301,40.7655834 380.478261,39.1267981 380.478261,37.2866276 C380.478261,35.6659563 380.210267,34.25626 379.672136,33.0586042 C379.135076,31.8630794 378.339671,30.8124667 377.300927,29.9099627 C376.264327,29.0074587 374.947942,28.2445392 373.373211,27.619073 C371.797407,26.9925413 369.982554,26.4203516 367.944729,25.9057006 C366.082709,25.4624401 364.554073,25.0404901 363.339525,24.6345232 C362.136769,24.2296217 361.190215,23.7884923 360.496647,23.3100693 C359.810583,22.8305807 359.339986,22.3137986 359.079496,21.7629196 C358.817934,21.2099094 358.688225,20.5471497 358.688225,19.7725093 C358.688225,18.4842834 359.24458,17.387853 360.356219,16.485349 Z" id="Shape" fill="#000000"></path>
        </g>
    </g>
</svg>