<svg height="496pt" viewBox="0 0 496 496" width="496pt" xmlns="http://www.w3.org/2000/svg"><path d="m464 240h-16v240h-24v-168h-16v168h-24v-240h-16v240h-19.054688l-16-32h-52.945312v-232h-16v232h-24v-168h-16v168h-24v-249.382812l-39.679688-111.105469c-.207031-.589844-.320312-1.222657-.320312-1.871094 0-3.113281 2.527344-5.640625 5.640625-5.640625h1.925781c2.152344 0 4.082032 1.191406 5.042969 3.121094l27.390625 54.765625v6.113281c0 22.054688 17.945312 40 40 40 5.695312 0 11.089844-1.230469 16-3.390625v8.804687l34.96875 13.984376c3.054688 1.226562 5.03125 4.144531 5.03125 7.433593v85.167969h16v-85.167969c0-9.863281-5.921875-18.617187-15.089844-22.289062l-24.910156-9.957031v-10.832032c4.960938-6.664062 8-14.832031 8-23.753906v-16c0-22.054688-17.945312-40-40-40-15.761719 0-29.289062 9.238281-35.800781 22.511719l-17.277344-34.542969c-3.609375-7.25-10.84375-11.746094-18.921875-11.914062v-64.054688h-64v48h48v20.984375c-4.839844 3.96875-8 9.917969-8 16.65625 0 2.503906.433594 4.96875 1.265625 7.28125l38.734375 108.460937v246.617188h-20.945312l-16 32h-19.054688v-240h-16v240h-24v-152h-16v152h-24v-240h-16v240h-32v16h496v-16h-32zm-248-112c0-13.230469 10.769531-24 24-24s24 10.769531 24 24v16c0 13.230469-10.769531 24-24 24s-24-10.769531-24-24zm-96-96v-16h32v16zm52.945312 432h150.109376l8 16h-166.109376zm0 0"/><path d="m478.59375 212.992188-38.59375-11.023438v-10.167969c9.65625-7.3125 16-18.785156 16-31.792969v-16c0-22.054687-17.945312-40-40-40s-40 17.945313-40 40v16c0 13.015626 6.34375 24.488282 16 31.792969v10.167969l-38.601562 11.023438c-10.238282 2.929687-17.398438 12.421874-17.398438 23.078124v83.929688h16v-83.929688c0-3.550781 2.382812-6.71875 5.800781-7.695312l50.199219-14.34375v-14.839844c2.585938.527344 5.265625.808594 8 .808594s5.414062-.28125 8-.808594v14.839844l50.191406 14.335938c3.425782.984374 5.808594 4.144531 5.808594 7.703124v83.929688h16v-83.929688c0-10.65625-7.160156-20.148437-17.40625-23.078124zm-86.59375-52.992188v-16c0-13.230469 10.769531-24 24-24s24 10.769531 24 24v16c0 13.230469-10.769531 24-24 24s-24-10.769531-24-24zm0 0"/><path d="m16 236.070312c0-3.550781 2.382812-6.71875 5.800781-7.695312l50.199219-14.34375v-14.839844c2.585938.527344 5.265625.808594 8 .808594s5.414062-.28125 8-.808594v14.839844l50.191406 14.335938c3.425782.984374 5.808594 4.144531 5.808594 7.703124v99.929688h16v-99.929688c0-10.65625-7.160156-20.148437-17.40625-23.078124l-38.59375-11.023438v-10.167969c9.65625-7.3125 16-18.785156 16-31.792969v-16c0-22.054687-17.945312-40-40-40s-40 17.945313-40 40v16c0 13.015626 6.34375 24.488282 16 31.792969v10.167969l-38.601562 11.023438c-10.238282 2.929687-17.398438 12.421874-17.398438 23.078124v99.929688h16zm40-92.070312c0-13.230469 10.769531-24 24-24s24 10.769531 24 24v16c0 13.230469-10.769531 24-24 24s-24-10.769531-24-24zm0 0"/></svg>